<svg width="137" height="137" viewBox="0 0 137 137" fill="none" xmlns="http://www.w3.org/2000/svg">
<g filter="url(#filter0_d_7_343)">
<circle cx="65.5" cy="64.5" r="64.5" fill="#F8F8F8"/>
</g>
<path d="M64.2679 35C65.0378 33.6667 66.9622 33.6667 67.7321 35L92.8468 78.5C93.6166 79.8333 92.6543 81.5 91.1147 81.5H40.8853C39.3457 81.5 38.3834 79.8333 39.1532 78.5L64.2679 35Z" stroke="#606060" stroke-width="2"/>
<path d="M64.031 65.224L63.039 50.6H68.991L67.999 65.224H64.031ZM66.015 73.256C65.119 73.256 64.383 72.968 63.807 72.392C63.231 71.816 62.943 71.1333 62.943 70.344C62.943 69.5333 63.231 68.8613 63.807 68.328C64.383 67.7733 65.119 67.496 66.015 67.496C66.9323 67.496 67.6683 67.7733 68.223 68.328C68.799 68.8613 69.087 69.5333 69.087 70.344C69.087 71.1333 68.799 71.816 68.223 72.392C67.6683 72.968 66.9323 73.256 66.015 73.256Z" fill="#606060"/>
<defs>
<filter id="filter0_d_7_343" x="0" y="0" width="137" height="137" filterUnits="userSpaceOnUse" color-interpolation-filters="sRGB">
<feFlood flood-opacity="0" result="BackgroundImageFix"/>
<feColorMatrix in="SourceAlpha" type="matrix" values="0 0 0 0 0 0 0 0 0 0 0 0 0 0 0 0 0 0 127 0" result="hardAlpha"/>
<feOffset dx="3" dy="4"/>
<feGaussianBlur stdDeviation="2"/>
<feComposite in2="hardAlpha" operator="out"/>
<feColorMatrix type="matrix" values="0 0 0 0 0 0 0 0 0 0 0 0 0 0 0 0 0 0 0.25 0"/>
<feBlend mode="normal" in2="BackgroundImageFix" result="effect1_dropShadow_7_343"/>
<feBlend mode="normal" in="SourceGraphic" in2="effect1_dropShadow_7_343" result="shape"/>
</filter>
</defs>
</svg>
