<svg width="137" height="137" viewBox="0 0 137 137" fill="none" xmlns="http://www.w3.org/2000/svg">
<g filter="url(#filter0_d_7_342)">
<circle cx="65.5" cy="64.5" r="64.5" fill="#F8F8F8"/>
</g>
<path fill-rule="evenodd" clip-rule="evenodd" d="M47.7786 35.0649C42.9555 35.8577 39.513 39.7475 39.513 44.4048C39.513 45.6411 39.6612 46.4851 40.1389 47.9695C40.7135 49.7555 41.1369 50.214 41.9155 49.894C42.4265 49.6838 42.5336 49.2533 42.252 48.5414C41.3874 46.3555 41.1386 44.4208 41.5115 42.782C42.3026 39.3051 45.5094 36.7696 49.1157 36.7696C52.6766 36.7696 55.9082 39.2679 56.7204 42.6488C57.0169 43.8825 56.9065 45.8906 56.4689 47.2248C55.8125 49.2263 54.6738 51.1357 52.8183 53.3459C51.7301 54.6423 49.3429 56.971 49.1022 56.971C48.8669 56.971 45.8659 53.9388 44.9265 52.7516C44.461 52.1633 43.996 51.6168 43.8933 51.5371C43.4313 51.1788 42.6352 51.4975 42.4905 52.0987C42.4022 52.4654 42.7597 53.0166 44.1162 54.6058C45.2734 55.9615 48.0706 58.6142 48.6829 58.9366C49.1106 59.1618 49.1212 59.1617 49.5715 58.9294C50.1335 58.6398 53.6951 55.1948 54.607 54.0591C57.4041 50.575 58.7219 47.4749 58.7163 44.3915C58.7116 41.8685 57.9014 39.8693 56.1267 38.0015C54.7131 36.5138 53.0202 35.5947 50.9137 35.1709C50.0502 34.9973 48.5073 34.9451 47.7786 35.0649ZM48.2809 40.2165C45.8186 40.7125 44.2339 43.2041 44.9179 45.5045C45.3264 46.8787 46.2266 47.8554 47.5754 48.3883C48.5669 48.7798 49.9504 48.7322 50.9628 48.2718C51.8447 47.8708 52.6915 47.0437 53.1062 46.1784C53.3824 45.602 53.4307 45.3423 53.4307 44.4317C53.4308 43.5016 53.3848 43.2644 53.0777 42.6142C52.2608 40.8844 50.1653 39.8369 48.2809 40.2165ZM49.8623 42.0142C52.0034 42.6414 52.3029 45.571 50.3312 46.6008C49.8764 46.8384 49.6487 46.8794 48.9793 46.8446C47.9263 46.7898 47.3082 46.3939 46.8518 45.4815C46.2157 44.2105 46.6956 42.8568 48.0139 42.2031C48.7345 41.8457 49.1444 41.8039 49.8623 42.0142ZM84.7007 48.4174C81.3464 48.9696 78.065 51.5957 76.8387 54.7098C75.1545 58.9865 76.3496 63.6579 80.4578 68.8564C81.4514 70.1136 85.4835 74.0649 86.093 74.3786C86.5223 74.5995 86.5642 74.6011 86.9729 74.4105C87.8804 73.9873 92.6776 69.1413 92.9937 68.3284C93.2177 67.7523 92.7832 67.1876 92.123 67.1965C91.7515 67.2015 91.6352 67.302 90.545 68.5596C89.4504 69.8223 86.7755 72.4224 86.5712 72.4224C86.3231 72.4224 83.524 69.6819 82.3944 68.3329C79.3613 64.7108 77.9299 61.5835 77.9284 58.5756C77.9277 57.1232 78.1786 56.0736 78.8478 54.7281C79.9079 52.5974 82.0437 50.911 84.4417 50.3113C85.5755 50.0278 87.3717 50.0032 88.4691 50.2562C91.4414 50.9414 93.8365 53.0727 94.7726 55.865C95.096 56.83 95.1229 57.0462 95.1164 58.635C95.1102 60.1642 95.072 60.4779 94.7768 61.4183C94.5938 62.0013 94.1694 63.0563 93.8336 63.7629C93.2703 64.948 93.2355 65.0727 93.3832 65.3737C93.6051 65.8263 94.0259 66.0137 94.4757 65.8603C95.0965 65.6488 96.3666 62.873 96.8143 60.7497C97.0595 59.5872 97.0623 57.5771 96.8204 56.4321C95.9858 52.4812 92.7258 49.2935 88.6852 48.4774C87.7318 48.2849 85.6927 48.2541 84.7007 48.4174ZM85.5876 54.0106C84.2996 54.2574 82.9032 55.3265 82.3189 56.513C81.7136 57.7424 81.7334 59.3765 82.3683 60.5826C83.8373 63.3735 87.6019 63.9626 89.8862 61.7588C91.7094 59.9999 91.7094 57.0325 89.8862 55.2735C88.73 54.1581 87.1853 53.7043 85.5876 54.0106ZM87.4515 55.8081C88.4961 56.1099 89.4712 57.4174 89.4712 58.5162C89.4712 60.0866 87.9213 61.4909 86.3615 61.3336C84.771 61.173 83.7052 60.0423 83.7061 58.5162C83.707 56.57 85.529 55.2527 87.4515 55.8081ZM50.3865 58.9268C49.756 59.5432 50.0835 60.1363 51.3152 60.6089C52.1109 60.9141 52.2047 60.9265 52.4996 60.7646C52.9187 60.5345 53.0946 60.0501 52.906 59.6452C52.75 59.3105 51.4517 58.6353 50.9639 58.6352C50.8104 58.635 50.5506 58.7664 50.3865 58.9268ZM54.8412 60.8209C54.646 61.0241 54.5794 61.2177 54.6072 61.5006C54.6511 61.9439 55.0633 62.2794 55.9883 62.6248C56.67 62.8794 57.1797 62.715 57.3708 62.1789C57.572 61.6147 57.2902 61.2266 56.4074 60.8522C55.4898 60.4631 55.1907 60.4571 54.8412 60.8209ZM59.4106 62.5705C59.0741 62.7619 58.9256 63.2554 59.0885 63.6401C59.2297 63.9733 60.2099 64.5189 60.9151 64.6568C61.6428 64.7992 62.1936 63.7048 61.6405 63.2153C61.3127 62.9253 60.2098 62.4376 59.8915 62.442C59.7477 62.444 59.5313 62.5018 59.4106 62.5705ZM63.7232 64.6152C63.5687 64.776 63.4589 65.044 63.4589 65.2604C63.4589 65.7141 63.8142 66.0135 64.7662 66.3618C65.5672 66.6549 66.0242 66.5483 66.2496 66.0158C66.4898 65.4489 66.2436 65.0874 65.3458 64.6894C64.396 64.2683 64.0709 64.2534 63.7232 64.6152ZM68.2839 66.3739C67.9493 66.5642 67.7988 67.0587 67.9599 67.4388C68.0573 67.6685 68.3296 67.8653 68.9171 68.13C69.8873 68.5673 70.011 68.5774 70.4318 68.2538C70.6605 68.0779 70.7521 67.8969 70.7521 67.6208C70.7521 67.1539 70.4405 66.8458 69.6123 66.4938C68.9589 66.2162 68.6157 66.1852 68.2839 66.3739ZM72.5965 68.4186C72.0105 69.0287 72.3423 69.6434 73.5027 70.0977C74.4509 70.4689 74.8821 70.3881 75.1345 69.792C75.3671 69.2431 75.1371 68.907 74.2471 68.4954C73.3317 68.0719 72.9469 68.054 72.5965 68.4186ZM43.7674 68.4402C42.1482 68.7589 40.1728 69.6673 39.2671 70.5097C38.6094 71.1214 38.6184 71.677 39.2916 72.0174C39.6966 72.2221 39.7496 72.2024 41.2984 71.2705C42.6553 70.4539 43.8051 70.1335 45.6009 70.0713C47.4578 70.0071 48.6223 70.2466 50.2097 71.0194C51.0485 71.4278 51.4611 71.7357 52.4028 72.6559C53.7098 73.9329 54.3658 75.002 54.8525 76.6486C55.2546 78.0088 55.2275 80.1015 54.787 81.7068C54.2924 83.5091 53.4023 85.3448 52.1223 87.2017C50.9955 88.8367 48.6619 91.4362 46.9842 92.9257L45.9618 93.8333L44.2428 92.1907C39.2975 87.4649 36.8389 83.0895 36.8389 79.0143C36.8389 77.4182 37.0786 76.4288 37.86 74.7996C38.2331 74.0219 38.2518 73.7289 37.9518 73.3666C37.6713 73.0279 37.0662 73.0072 36.7002 73.3237C36.3033 73.667 35.6358 75.1678 35.3091 76.4511C34.3291 80.3006 35.6947 84.8463 39.1872 89.3595C40.4084 90.9378 42.2199 92.865 43.7748 94.2398C45.3515 95.6341 45.625 95.8264 46.0402 95.833C46.4034 95.8387 47.529 94.9155 49.4272 93.0551C52.2293 90.3088 54.1221 87.8148 55.3725 85.2215C56.5383 82.804 56.9194 81.2876 56.9312 79.019C56.9399 77.3225 56.7897 76.5191 56.1696 74.9467C54.9049 71.7399 51.7658 69.1807 48.1881 68.4395C47.1644 68.2275 44.8469 68.2278 43.7674 68.4402ZM77.066 70.2645C76.7287 70.5316 76.6958 71.1299 77.0005 71.4591C77.2134 71.6892 78.0866 72.1012 78.6582 72.2413C79.1235 72.3553 79.6254 71.9249 79.6254 71.412C79.6254 70.9213 79.393 70.6837 78.5612 70.324C77.7844 69.9881 77.4327 69.9741 77.066 70.2645ZM81.4699 72.222C80.8794 72.8368 81.2067 73.4301 82.3943 73.8976C83.2014 74.2153 83.2527 74.2211 83.6173 74.0367C84.4418 73.6199 84.2217 72.7999 83.1461 72.2819C82.3061 71.8775 81.8177 71.86 81.4699 72.222ZM44.5315 74.3723C43.3734 74.7385 42.1216 75.7673 41.6098 76.7735C40.9392 78.0921 40.9149 79.7039 41.546 81.0128C43.0167 84.0635 47.1941 84.7288 49.532 82.2848C51.8328 79.8796 51.093 76.053 48.0552 74.6462C47.3431 74.3164 47.0836 74.2611 46.1377 74.2375C45.47 74.221 44.8441 74.2734 44.5315 74.3723ZM83.9433 75.4269C83.0548 75.8953 82.7972 76.2733 83.0154 76.7884C83.1912 77.2031 83.6109 77.4287 84.0194 77.328C84.5 77.2095 85.5794 76.5705 85.7139 76.3248C85.997 75.8076 85.5156 75.0325 84.9162 75.0406C84.7807 75.0425 84.343 75.2163 83.9433 75.4269ZM47.114 76.1603C47.7999 76.4406 48.3261 76.9001 48.6712 77.5201C49.3643 78.7652 49.1706 80.1283 48.1607 81.116C46.5813 82.6603 43.9639 82.1316 43.0926 80.0925C42.8847 79.6057 42.8646 78.6122 43.0496 77.9606C43.2144 77.3802 44.3032 76.2862 44.8763 76.125C45.5004 75.9495 46.642 75.9676 47.114 76.1603ZM79.5808 77.6802C78.815 78.0863 78.5773 78.4104 78.6986 78.883C78.8905 79.631 79.5736 79.7511 80.543 79.2074C81.3103 78.7771 81.4892 78.5681 81.4892 78.1027C81.4892 77.6631 81.0878 77.294 80.6147 77.2988C80.4384 77.3004 79.9731 77.472 79.5808 77.6802ZM75.3104 79.9141C74.5967 80.3232 74.3987 80.5551 74.3987 80.9821C74.3987 81.3571 74.8546 81.8121 75.2304 81.8121C75.6144 81.8121 76.9184 81.1434 77.0682 80.8696C77.2865 80.4708 77.219 79.9407 76.9242 79.7389C76.5244 79.465 75.9933 79.5227 75.3104 79.9141ZM71.3598 82.0003C70.4554 82.4102 70.1443 82.7149 70.1443 83.1911C70.1443 83.5998 70.5921 84.0704 70.9812 84.0704C71.2126 84.0704 72.3477 83.4989 72.6968 83.2067C73.1597 82.8191 72.9005 81.9404 72.2715 81.7649C72.1339 81.7266 71.7382 81.8287 71.3598 82.0003ZM66.8426 84.3414C65.9302 84.8033 65.664 85.1925 65.9137 85.7004C66.0009 85.8777 66.2129 86.1 66.3849 86.1942C66.6697 86.3503 66.7585 86.3382 67.3854 86.0575C68.6424 85.4949 69.0017 84.844 68.3873 84.2433C67.9954 83.86 67.7648 83.8746 66.8426 84.3414ZM62.6565 86.5125C61.9796 86.8565 61.5141 87.3107 61.5141 87.6267C61.5141 87.745 61.6275 87.9827 61.7661 88.1549C62.1046 88.5758 62.5774 88.5614 63.4567 88.1031C64.442 87.5895 64.6769 87.0334 64.1329 86.5016C63.7538 86.1308 63.4023 86.1334 62.6565 86.5125ZM58.2061 88.8301C57.227 89.3243 57.0183 89.8 57.5117 90.4132C57.6616 90.5997 57.8844 90.7264 58.0621 90.7264C58.4135 90.7264 59.6935 90.1182 59.931 89.8383C60.193 89.5297 60.1354 88.9377 59.8191 88.6873C59.4358 88.3837 59.0171 88.4208 58.2061 88.8301ZM54.2209 90.9145C53.3164 91.3245 53.0054 91.6292 53.0054 92.1053C53.0054 92.5146 53.4544 92.9858 53.8423 92.9835C54.1412 92.9817 55.2615 92.4425 55.5475 92.1629C55.8632 91.8542 55.8853 91.192 55.5884 90.9371C55.2044 90.6074 54.9091 90.6025 54.2209 90.9145ZM49.771 93.2334C48.9172 93.6719 48.751 93.8563 48.751 94.3656C48.751 94.6396 48.8432 94.8211 49.0713 94.9965C49.2475 95.132 49.4526 95.2424 49.5272 95.2417C49.772 95.2397 50.9939 94.6383 51.2733 94.3824C51.6632 94.0251 51.6413 93.4312 51.2265 93.1122C50.8003 92.7842 50.6158 92.7997 49.771 93.2334Z" fill="#606060"/>
<defs>
<filter id="filter0_d_7_342" x="0" y="0" width="137" height="137" filterUnits="userSpaceOnUse" color-interpolation-filters="sRGB">
<feFlood flood-opacity="0" result="BackgroundImageFix"/>
<feColorMatrix in="SourceAlpha" type="matrix" values="0 0 0 0 0 0 0 0 0 0 0 0 0 0 0 0 0 0 127 0" result="hardAlpha"/>
<feOffset dx="3" dy="4"/>
<feGaussianBlur stdDeviation="2"/>
<feComposite in2="hardAlpha" operator="out"/>
<feColorMatrix type="matrix" values="0 0 0 0 0 0 0 0 0 0 0 0 0 0 0 0 0 0 0.25 0"/>
<feBlend mode="normal" in2="BackgroundImageFix" result="effect1_dropShadow_7_342"/>
<feBlend mode="normal" in="SourceGraphic" in2="effect1_dropShadow_7_342" result="shape"/>
</filter>
</defs>
</svg>
