<svg width="137" height="137" viewBox="0 0 137 137" fill="none" xmlns="http://www.w3.org/2000/svg">
<g filter="url(#filter0_d_7_341)">
<circle cx="65.5" cy="64.5" r="64.5" fill="#F8F8F8"/>
</g>
<path fill-rule="evenodd" clip-rule="evenodd" d="M93.1315 32.2272C92.6942 32.3478 90.1005 33.0395 87.3677 33.7644C84.6349 34.4892 81.4931 35.3227 80.3858 35.6166C78.2761 36.1764 78.0443 36.2802 77.963 36.7014C77.9412 36.8149 77.9571 36.9982 77.9985 37.1087C78.0399 37.2192 78.8591 38.0895 79.8188 39.0429L81.5637 40.7762L75.9214 46.3662C72.4706 49.7849 70.2521 51.9264 70.2096 51.8795C70.1479 51.8111 64.4731 45.1622 62.8502 43.2565C61.6165 41.808 60.9181 41.0108 60.8074 40.9245C60.6254 40.783 60.3353 40.7409 60.1106 40.8235C59.7899 40.9412 37.1414 63.4057 37.0415 63.705C36.9872 63.8679 36.9862 64.018 37.0385 64.1543C37.0817 64.2669 37.9602 65.1935 38.9908 66.2136C40.8439 68.0478 40.8683 68.0683 41.2002 68.0683H41.5357L50.7745 58.9149C55.8557 53.8805 60.0265 49.7778 60.0426 49.7975C60.0588 49.8174 61.0531 50.9827 62.252 52.3872C63.451 53.7916 64.6645 55.2138 64.9487 55.5476C65.2329 55.8814 65.8105 56.5578 66.2322 57.0507C66.6538 57.5434 67.5399 58.584 68.2011 59.363C68.8624 60.142 69.4968 60.8278 69.6111 60.887C70.0933 61.1374 69.8485 61.3598 78.2051 53.0818L86.0952 45.2659L87.8246 46.9703C88.7757 47.9077 89.6321 48.714 89.7276 48.7619C90.1218 48.9596 90.651 48.748 90.7828 48.3401C90.8253 48.2085 91.1828 46.8956 91.5772 45.4226C92.4761 42.0649 92.6072 41.5785 92.7448 41.0904C92.8836 40.5978 93.4252 38.6086 93.6348 37.8216C93.7214 37.4967 94.067 36.2091 94.4031 34.9602C94.9418 32.9576 95.0028 32.6629 94.9193 32.4632C94.7964 32.1691 94.5146 31.9909 94.1876 32.0004C94.044 32.0045 93.5687 32.1065 93.1315 32.2272ZM92.7309 35.2682C92.5301 36.001 91.9898 38.0008 91.5303 39.712C91.0708 41.4232 90.6467 43.0005 90.5879 43.2171C90.5292 43.4338 90.3138 44.2313 90.1094 44.9894C89.9048 45.7476 89.7119 46.4134 89.6808 46.4691C89.6424 46.5375 89.1488 46.096 88.158 45.1074C87.3517 44.3028 86.5954 43.5926 86.4773 43.5293C85.9479 43.2452 86.4122 42.8267 77.9041 51.2549L69.9889 59.0957L68.1247 56.9079C67.0993 55.7047 66.0449 54.4714 65.7815 54.1673C65.5181 53.8632 64.2355 52.3643 62.9314 50.8364C61.6273 49.3085 60.4873 48.0198 60.3983 47.9726C60.3093 47.9253 60.1082 47.9074 59.9514 47.9325C59.7004 47.9729 58.5715 49.0632 50.4416 57.1179L41.2168 66.2575L40.0452 65.0947L38.8736 63.9319L49.6093 53.2988C58.7205 44.2748 60.3596 42.6842 60.4407 42.7874C60.4934 42.8543 61.0194 43.4713 61.6097 44.1585C62.2 44.8457 63.1838 45.9988 63.796 46.721C64.4081 47.4431 65.3919 48.5942 65.9822 49.2791C66.5725 49.964 67.1628 50.6566 67.294 50.8182C67.9946 51.6814 69.6705 53.5878 69.8198 53.6915C69.9148 53.7574 70.1185 53.8114 70.2725 53.8114C70.5373 53.8114 70.8968 53.4701 76.9725 47.4503L83.3927 41.0893V40.7465C83.3927 40.4065 83.3796 40.3904 81.8629 38.8778C81.0215 38.0387 80.3225 37.3209 80.3097 37.2827C80.2968 37.2446 80.6722 37.1125 81.1439 36.9892C81.6156 36.8658 84.4878 36.1046 87.5267 35.2977C90.5656 34.4907 93.0619 33.8541 93.0741 33.8831C93.0862 33.912 92.9318 34.5353 92.7309 35.2682ZM79.938 57.3988L79.7357 57.5994V77.5693V97.5394L79.9681 97.7696L80.2005 97.9999H87.2861C94.9813 97.9999 94.6992 98.0159 94.9047 97.5688C94.9775 97.4104 94.9997 92.7521 94.9997 77.5915C94.9997 56.23 95.0243 57.501 94.6066 57.2795C94.505 57.2255 92.0535 57.1984 87.297 57.1984H80.1405L79.938 57.3988ZM93.4285 66.9064C93.44 71.4227 93.4402 79.9296 93.4287 85.8106L93.4081 96.5033H87.3271H81.2462V77.5991V58.6949H87.3269H93.4076L93.4285 66.9064ZM59.0935 65.3246C58.9994 65.3701 58.8636 65.5186 58.7918 65.6547C58.6716 65.8823 58.663 67.1737 58.6845 81.7609L58.708 97.6196L58.931 97.8098L59.1541 97.9999H66.3108H73.4675L73.6998 97.7696L73.9322 97.5394V81.6267V65.7141L73.7404 65.493L73.5486 65.272L66.4065 65.257C61.5524 65.2468 59.2097 65.2685 59.0935 65.3246ZM67.8703 66.8069L72.4217 66.808V81.6556V96.5033H66.3002H60.1787V81.6574V66.8116L61.5898 66.7868C62.3659 66.7732 63.0725 66.7718 63.16 66.7839C63.2474 66.7959 65.367 66.8063 67.8703 66.8069ZM38.8224 72.7763C38.7291 72.8512 38.6128 72.9899 38.564 73.0845C38.4382 73.3282 38.4375 97.1604 38.5633 97.5179C38.7407 98.022 38.3908 97.9999 46.1767 97.9999H53.25L53.4946 97.7959L53.7392 97.592V85.322V73.0521L53.5297 72.8444L53.32 72.6368L46.156 72.6385C39.4882 72.6401 38.9802 72.6497 38.8224 72.7763ZM52.2287 85.3183V96.5033H46.147H40.0652V85.3183V74.1333H46.147H52.2287V85.3183Z" fill="#606060"/>
<defs>
<filter id="filter0_d_7_341" x="0" y="0" width="137" height="137" filterUnits="userSpaceOnUse" color-interpolation-filters="sRGB">
<feFlood flood-opacity="0" result="BackgroundImageFix"/>
<feColorMatrix in="SourceAlpha" type="matrix" values="0 0 0 0 0 0 0 0 0 0 0 0 0 0 0 0 0 0 127 0" result="hardAlpha"/>
<feOffset dx="3" dy="4"/>
<feGaussianBlur stdDeviation="2"/>
<feComposite in2="hardAlpha" operator="out"/>
<feColorMatrix type="matrix" values="0 0 0 0 0 0 0 0 0 0 0 0 0 0 0 0 0 0 0.25 0"/>
<feBlend mode="normal" in2="BackgroundImageFix" result="effect1_dropShadow_7_341"/>
<feBlend mode="normal" in="SourceGraphic" in2="effect1_dropShadow_7_341" result="shape"/>
</filter>
</defs>
</svg>
