<svg width="137" height="137" viewBox="0 0 137 137" fill="none" xmlns="http://www.w3.org/2000/svg">
<g filter="url(#filter0_d_7_340)">
<circle cx="65.5" cy="64.5" r="64.5" fill="#F8F8F8"/>
</g>
<path fill-rule="evenodd" clip-rule="evenodd" d="M54.3311 33.8492C54.2085 33.9437 52.9748 36.3239 51.5896 39.1387L49.0711 44.2568V58.8758V73.495L48.2616 74.2525C47.3836 75.0743 46.861 75.9956 46.6209 77.1445C46.4816 77.8115 46.4288 77.8795 45.803 78.1947L45.134 78.5317L44.6721 78.0647L44.2103 77.5979H39.502H34.7937L34.3969 77.9991C34.1328 78.2662 34 78.5395 34 78.8166C34 79.0454 35.0346 82.9872 36.2991 87.576C38.3203 94.9113 38.6411 95.9566 38.9542 96.2289C39.3098 96.538 39.3183 96.5386 44.2691 96.5386H49.2278L49.6247 96.1374C50.1598 95.5965 50.137 95.2289 49.4239 92.9014C49.1002 91.8446 48.8425 90.9715 48.8513 90.9612C49.0214 90.7643 53.2219 88.2007 53.5832 88.0734C54.0383 87.913 54.5365 87.9657 58.4712 88.5905C65.0909 89.6417 66.0078 89.5362 69.4873 87.3229C70.468 86.6989 73.9769 84.441 77.2848 82.305L83.2991 78.4215H89.878C96.2759 78.4215 96.4644 78.4139 96.7284 78.147C96.997 77.8755 97 77.6895 97 60.9899V44.1072L94.5418 39.1327C93.1899 36.3966 91.9889 34.05 91.8731 33.9179C91.6746 33.6913 90.6084 33.6777 73.1083 33.6777C58.4744 33.6777 54.5069 33.7139 54.3311 33.8492ZM72.2888 39.4422V43.5597H66.5862C61.0646 43.5597 60.8751 43.5684 60.6121 43.8342C60.4627 43.9852 60.3405 44.2323 60.3405 44.3832C60.3405 44.5342 60.4627 44.7813 60.6121 44.9322C60.865 45.1879 61.0646 45.2067 63.5312 45.2067H66.1789V48.7066C66.1789 52.0236 66.1931 52.221 66.4504 52.481C66.7146 52.7481 66.903 52.7555 73.3673 52.7555H80.0127L80.2239 52.4504C80.4018 52.1939 80.4353 51.594 80.4353 48.676V45.2067H87.903H95.3707V60.9906V76.7744H87.6994H80.028V71.6727C80.028 67.118 80.004 66.5439 79.8033 66.3199C79.3779 65.8447 78.9114 66.0011 78.0595 66.9038L77.2716 67.7388L76.4659 66.9038C75.4233 65.8233 75.235 65.8221 74.1362 66.8888L73.2915 67.7086L72.4889 66.8888C71.9579 66.3464 71.5775 66.0689 71.3648 66.0689C71.1568 66.0689 70.7452 66.3583 70.1987 66.8888L69.354 67.7086L68.5514 66.8888C67.6561 65.9742 67.1729 65.8323 66.7976 66.374C66.6155 66.6366 66.5862 67.3802 66.5862 71.7268V76.7744H64.1444H61.7026L63.2078 73.7206L64.7129 70.6668L64.6548 69.6213C64.5675 68.0527 63.8404 66.9681 62.445 66.3251C61.6457 65.9569 60.3172 65.9867 59.4555 66.3922C58.7241 66.7366 58.3575 67.1294 56.0419 70.0497C55.2933 70.9937 54.4421 71.9318 54.1502 72.1345C53.5466 72.5537 52.7758 72.7603 51.549 72.8312L50.7004 72.8804V59.0436V45.2067H53.3481C55.8147 45.2067 56.0143 45.1879 56.2672 44.9322C56.5869 44.6092 56.6132 44.2641 56.3464 43.8948C56.1719 43.6531 55.9283 43.622 53.7261 43.5597L51.2981 43.4911L53.2735 39.4087L55.2489 35.3263L63.7689 35.3255L72.2888 35.3247V39.4422ZM92.826 39.3741C93.9268 41.6014 94.8276 43.4543 94.8276 43.4917C94.8276 43.5291 90.123 43.5597 84.3728 43.5597H73.9181V39.4422V35.3247H82.3712H90.8244L92.826 39.3741ZM78.806 48.1576V51.1085H73.3071H67.8082V48.1576V45.2067H73.3071H78.806V48.1576ZM54.048 48.6145C53.7554 48.9413 53.7472 50.1143 54.0347 50.5289C54.17 50.7244 54.3869 50.834 54.6379 50.834C55.1785 50.834 55.4526 50.3922 55.4526 49.5208C55.4526 49.0141 55.3833 48.7544 55.2043 48.5907C54.8764 48.2906 54.3278 48.302 54.048 48.6145ZM54.0948 52.0693C53.8336 52.3334 53.8233 52.5267 53.8233 57.1476C53.8233 61.7684 53.8336 61.9618 54.0948 62.2259C54.2442 62.3768 54.4886 62.5004 54.6379 62.5004C54.7873 62.5004 55.0317 62.3768 55.181 62.2259C55.4423 61.9618 55.4526 61.7684 55.4526 57.1476C55.4526 52.5267 55.4423 52.3334 55.181 52.0693C55.0317 51.9183 54.7873 51.7948 54.6379 51.7948C54.4886 51.7948 54.2442 51.9183 54.0948 52.0693ZM62.0729 67.9897C62.6793 68.3633 63.0549 69.0331 63.0555 69.7414C63.0559 70.2155 62.736 70.9724 61.3588 73.7549C60.4254 75.641 59.6616 77.3495 59.6616 77.5518C59.6616 77.754 59.7628 78.0324 59.8863 78.1704C60.1002 78.4094 60.6008 78.4216 70.2393 78.4231L80.3675 78.4248L79.7565 78.82C73.9101 82.6027 67.6059 86.6177 67.1293 86.8618C65.259 87.8201 64.1716 87.8296 58.517 86.9368C53.0063 86.0667 53.6026 85.9843 50.323 88.0691C49.2565 88.747 48.3625 89.2779 48.3362 89.2486C48.2482 89.1512 45.5176 80.1835 45.5635 80.1431C45.5885 80.1212 45.9555 79.9333 46.3792 79.7256C47.5013 79.1755 48.1207 78.6194 48.1207 78.1619C48.1207 77.3832 48.5421 76.3411 49.1081 75.7205C49.9246 74.8249 50.5143 74.5702 52.0917 74.4317C53.4675 74.3109 54.4222 73.9872 55.3308 73.3332C55.555 73.1717 56.6455 71.9159 57.7541 70.5423C58.8629 69.1686 59.9135 67.9749 60.0892 67.8896C60.6088 67.6371 61.5803 67.6861 62.0729 67.9897ZM72.2316 68.9511C72.6982 69.4041 73.1822 69.7747 73.3071 69.7747C73.432 69.7747 73.9161 69.4041 74.3826 68.9511C74.8493 68.4982 75.2795 68.1276 75.3387 68.1276C75.3979 68.1276 75.7592 68.464 76.1418 68.8751C77.0525 69.854 77.4386 69.9525 77.9866 69.346L78.3987 68.8899V72.8322V76.7744H73.3071H68.2155V72.8485V68.9227L68.6955 69.3486C68.9594 69.5829 69.271 69.7747 69.3878 69.7747C69.5047 69.7747 69.9761 69.4053 70.4355 68.9538C70.8946 68.5022 71.2959 68.1316 71.3268 68.1303C71.3578 68.1289 71.765 68.4982 72.2316 68.9511ZM45.8026 86.7938C47.0517 90.9079 48.1191 94.4128 48.1743 94.5827L48.2748 94.8916H44.1244C41.8417 94.8916 39.9741 94.863 39.9741 94.828C39.9741 94.793 39.0271 91.3291 37.8696 87.1303C36.7121 82.9315 35.7651 79.4386 35.7651 79.3685C35.7651 79.2918 37.3181 79.2553 39.6483 79.2772L43.5315 79.3136L45.8026 86.7938ZM41.9046 90.316C40.6959 90.9183 40.3497 92.6061 41.2086 93.7097C42.154 94.9248 44.1772 94.7388 44.8663 93.3734C45.4179 92.2804 45.0997 91.1093 44.058 90.3999C43.5065 90.0241 42.5642 89.9875 41.9046 90.316ZM43.367 91.9389C43.4632 92.056 43.4981 92.2901 43.449 92.4879C43.3818 92.7587 43.2773 92.8328 42.9634 92.8328C42.4687 92.8328 42.1983 92.4245 42.4181 92.0093C42.5893 91.6858 43.1266 91.646 43.367 91.9389Z" fill="#606060"/>
<defs>
<filter id="filter0_d_7_340" x="0" y="0" width="137" height="137" filterUnits="userSpaceOnUse" color-interpolation-filters="sRGB">
<feFlood flood-opacity="0" result="BackgroundImageFix"/>
<feColorMatrix in="SourceAlpha" type="matrix" values="0 0 0 0 0 0 0 0 0 0 0 0 0 0 0 0 0 0 127 0" result="hardAlpha"/>
<feOffset dx="3" dy="4"/>
<feGaussianBlur stdDeviation="2"/>
<feComposite in2="hardAlpha" operator="out"/>
<feColorMatrix type="matrix" values="0 0 0 0 0 0 0 0 0 0 0 0 0 0 0 0 0 0 0.25 0"/>
<feBlend mode="normal" in2="BackgroundImageFix" result="effect1_dropShadow_7_340"/>
<feBlend mode="normal" in="SourceGraphic" in2="effect1_dropShadow_7_340" result="shape"/>
</filter>
</defs>
</svg>
