<svg width="87" height="51" viewBox="0 0 87 51" fill="none" xmlns="http://www.w3.org/2000/svg">
<path d="M2.32032 46.7308V34.5573H6.4336C7.38862 34.5573 8.16927 34.7297 8.77556 35.0745C9.38582 35.4153 9.83757 35.8769 10.1308 36.4594C10.424 37.042 10.5707 37.6918 10.5707 38.4091C10.5707 39.1263 10.424 39.7782 10.1308 40.3647C9.84153 40.9512 9.39374 41.4188 8.78745 41.7675C8.18116 42.1122 7.40447 42.2846 6.45738 42.2846H3.50913V40.9769H6.40983C7.06367 40.9769 7.58873 40.864 7.985 40.6381C8.38127 40.4122 8.66857 40.1071 8.84689 39.7227C9.02918 39.3344 9.12032 38.8965 9.12032 38.4091C9.12032 37.9217 9.02918 37.4858 8.84689 37.1014C8.66857 36.717 8.37929 36.4159 7.97906 36.1979C7.57883 35.976 7.04782 35.865 6.38605 35.865H3.79444V46.7308H2.32032ZM16.3661 46.921C15.5419 46.921 14.8187 46.7248 14.1965 46.3325C13.5784 45.9402 13.0949 45.3914 12.7462 44.686C12.4014 43.9807 12.2291 43.1564 12.2291 42.2133C12.2291 41.2622 12.4014 40.4321 12.7462 39.7227C13.0949 39.0134 13.5784 38.4626 14.1965 38.0703C14.8187 37.678 15.5419 37.4818 16.3661 37.4818C17.1904 37.4818 17.9116 37.678 18.5298 38.0703C19.1519 38.4626 19.6354 39.0134 19.9801 39.7227C20.3288 40.4321 20.5032 41.2622 20.5032 42.2133C20.5032 43.1564 20.3288 43.9807 19.9801 44.686C19.6354 45.3914 19.1519 45.9402 18.5298 46.3325C17.9116 46.7248 17.1904 46.921 16.3661 46.921ZM16.3661 45.6608C16.9922 45.6608 17.5074 45.5004 17.9116 45.1794C18.3158 44.8584 18.615 44.4364 18.8091 43.9133C19.0033 43.3902 19.1004 42.8235 19.1004 42.2133C19.1004 41.603 19.0033 41.0344 18.8091 40.5073C18.615 39.9803 18.3158 39.5543 17.9116 39.2294C17.5074 38.9044 16.9922 38.742 16.3661 38.742C15.74 38.742 15.2249 38.9044 14.8207 39.2294C14.4165 39.5543 14.1173 39.9803 13.9231 40.5073C13.7289 41.0344 13.6319 41.603 13.6319 42.2133C13.6319 42.8235 13.7289 43.3902 13.9231 43.9133C14.1173 44.4364 14.4165 44.8584 14.8207 45.1794C15.2249 45.5004 15.74 45.6608 16.3661 45.6608ZM22.6445 46.7308V37.6007H23.9998V38.9797H24.0949C24.2613 38.528 24.5625 38.1614 24.9984 37.8801C25.4343 37.5987 25.9257 37.458 26.4725 37.458C26.5755 37.458 26.7043 37.46 26.8589 37.464C27.0134 37.468 27.1303 37.4739 27.2096 37.4818V38.9084C27.162 38.8965 27.053 38.8787 26.8826 38.8549C26.7162 38.8272 26.5399 38.8133 26.3536 38.8133C25.9098 38.8133 25.5135 38.9064 25.1648 39.0927C24.8201 39.2749 24.5466 39.5286 24.3445 39.8535C24.1464 40.1745 24.0473 40.541 24.0473 40.9532V46.7308H22.6445ZM33.4152 37.6007V38.7895H28.6837V37.6007H33.4152ZM30.0627 35.4133H31.4655V44.1154C31.4655 44.5117 31.523 44.8089 31.6379 45.007C31.7568 45.2012 31.9074 45.3319 32.0896 45.3993C32.2759 45.4627 32.472 45.4944 32.6781 45.4944C32.8326 45.4944 32.9594 45.4865 33.0585 45.4706C33.1576 45.4508 33.2368 45.435 33.2963 45.4231L33.5816 46.6832C33.4865 46.7189 33.3537 46.7546 33.1833 46.7902C33.0129 46.8298 32.797 46.8497 32.5354 46.8497C32.1392 46.8497 31.7508 46.7645 31.3704 46.5941C30.9939 46.4237 30.6809 46.1641 30.4312 45.8154C30.1856 45.4667 30.0627 45.0268 30.0627 44.4958V35.4133ZM39.2552 46.921C38.3755 46.921 37.6166 46.7268 36.9786 46.3385C36.3446 45.9462 35.8552 45.3993 35.5104 44.6979C35.1696 43.9925 34.9993 43.1723 34.9993 42.2371C34.9993 41.3019 35.1696 40.4776 35.5104 39.7643C35.8552 39.0471 36.3347 38.4883 36.9489 38.0881C37.5671 37.6839 38.2883 37.4818 39.1125 37.4818C39.5881 37.4818 40.0576 37.5611 40.5213 37.7196C40.9849 37.8781 41.4069 38.1357 41.7874 38.4923C42.1678 38.845 42.4709 39.3126 42.6968 39.8951C42.9227 40.4776 43.0356 41.1949 43.0356 42.0469V42.6413H35.9979V41.4287H41.609C41.609 40.9135 41.506 40.4539 41.3 40.0497C41.0979 39.6455 40.8086 39.3265 40.4321 39.0927C40.0596 38.8589 39.6198 38.742 39.1125 38.742C38.5538 38.742 38.0703 38.8807 37.6622 39.158C37.258 39.4315 36.9469 39.7881 36.729 40.228C36.511 40.6678 36.402 41.1394 36.402 41.6427V42.4511C36.402 43.1406 36.5209 43.7251 36.7587 44.2045C37.0004 44.6801 37.3353 45.0427 37.7632 45.2923C38.1912 45.538 38.6885 45.6608 39.2552 45.6608C39.6237 45.6608 39.9566 45.6093 40.2538 45.5063C40.555 45.3993 40.8145 45.2408 41.0325 45.0308C41.2504 44.8168 41.4188 44.5513 41.5377 44.2343L42.893 44.6147C42.7503 45.0744 42.5106 45.4786 42.1737 45.8273C41.8369 46.172 41.4208 46.4415 40.9255 46.6357C40.4301 46.8259 39.8734 46.921 39.2552 46.921ZM45.1695 46.7308V37.6007H46.5248V38.9797H46.6199C46.7863 38.528 47.0875 38.1614 47.5234 37.8801C47.9593 37.5987 48.4507 37.458 48.9975 37.458C49.1005 37.458 49.2293 37.46 49.3839 37.464C49.5384 37.468 49.6553 37.4739 49.7346 37.4818V38.9084C49.687 38.8965 49.578 38.8787 49.4076 38.8549C49.2412 38.8272 49.0649 38.8133 48.8786 38.8133C48.4348 38.8133 48.0385 38.9064 47.6898 39.0927C47.3451 39.2749 47.0716 39.5286 46.8695 39.8535C46.6714 40.1745 46.5723 40.541 46.5723 40.9532V46.7308H45.1695Z" fill="white"/>
<path d="M55.6296 35.865V34.5573H64.7597V35.865H60.9317V46.7308H59.4576V35.865H55.6296ZM68.2889 46.9448C67.7104 46.9448 67.1853 46.8358 66.7138 46.6178C66.2422 46.3959 65.8677 46.0769 65.5903 45.6608C65.3129 45.2408 65.1743 44.7336 65.1743 44.1392C65.1743 43.6161 65.2773 43.1921 65.4833 42.8671C65.6894 42.5382 65.9648 42.2807 66.3096 42.0944C66.6543 41.9082 67.0347 41.7695 67.4508 41.6783C67.8709 41.5832 68.2929 41.5079 68.7169 41.4525C69.2717 41.3811 69.7215 41.3276 70.0662 41.292C70.4149 41.2523 70.6685 41.187 70.8271 41.0958C70.9895 41.0047 71.0708 40.8462 71.0708 40.6203V40.5727C71.0708 39.9863 70.9103 39.5305 70.5893 39.2056C70.2723 38.8807 69.7908 38.7182 69.1449 38.7182C68.4752 38.7182 67.9501 38.8648 67.5697 39.158C67.1893 39.4513 66.9218 39.7643 66.7673 40.0972L65.4358 39.6217C65.6736 39.0669 65.9906 38.635 66.3868 38.3259C66.7871 38.0128 67.223 37.7949 67.6945 37.672C68.1701 37.5452 68.6377 37.4818 69.0973 37.4818C69.3906 37.4818 69.7274 37.5175 70.1078 37.5888C70.4922 37.6562 70.8627 37.7969 71.2194 38.0108C71.58 38.2248 71.8791 38.5478 72.1169 38.9797C72.3547 39.4117 72.4736 39.9902 72.4736 40.7154V46.7308H71.0708V45.4944H70.9994C70.9043 45.6925 70.7458 45.9046 70.5239 46.1304C70.302 46.3563 70.0068 46.5485 69.6382 46.707C69.2697 46.8655 68.8199 46.9448 68.2889 46.9448ZM68.5029 45.6846C69.0577 45.6846 69.5253 45.5756 69.9057 45.3577C70.2901 45.1397 70.5794 44.8584 70.7736 44.5136C70.9717 44.1689 71.0708 43.8063 71.0708 43.4259V42.142C71.0113 42.2133 70.8805 42.2787 70.6785 42.3381C70.4803 42.3936 70.2505 42.4431 69.9889 42.4867C69.7314 42.5263 69.4797 42.562 69.234 42.5937C68.9923 42.6214 68.7962 42.6452 68.6456 42.665C68.281 42.7126 67.9402 42.7899 67.6232 42.8969C67.3102 42.9999 67.0565 43.1564 66.8624 43.3664C66.6722 43.5725 66.5771 43.8539 66.5771 44.2105C66.5771 44.6979 66.7574 45.0664 67.118 45.3161C67.4825 45.5618 67.9442 45.6846 68.5029 45.6846ZM76.0801 37.6007L78.2675 41.3336L80.4549 37.6007H82.0717L79.1235 42.1657L82.0717 46.7308H80.4549L78.2675 43.1881L76.0801 46.7308H74.4633L77.364 42.1657L74.4633 37.6007H76.0801ZM84.0734 46.7308V37.6007H85.4762V46.7308H84.0734ZM84.7867 36.079C84.5132 36.079 84.2775 35.9859 84.0793 35.7997C83.8852 35.6134 83.7881 35.3895 83.7881 35.128C83.7881 34.8664 83.8852 34.6425 84.0793 34.4563C84.2775 34.2701 84.5132 34.1769 84.7867 34.1769C85.0601 34.1769 85.2939 34.2701 85.4881 34.4563C85.6862 34.6425 85.7853 34.8664 85.7853 35.128C85.7853 35.3895 85.6862 35.6134 85.4881 35.7997C85.2939 35.9859 85.0601 36.079 84.7867 36.079Z" fill="#FFC71A"/>
<path d="M32.6866 17.0957V6.20789H19.2201L11.9615 17.7643V24.8318H20.9392" stroke="#FFC71A" stroke-width="1.71913"/>
<path d="M41.5687 25.1183H30.9674" stroke="#FFC71A" stroke-width="1.71913"/>
<path d="M60.8611 25.2139L51.6924 25.2139" stroke="#FFC71A" stroke-width="1.71913"/>
<path d="M75.3783 25.2139L71.749 25.2139" stroke="#FFC71A" stroke-width="1.71913"/>
<path d="M37.3665 0V15.9497H75.6648" stroke="#FFC71A" stroke-width="1.71913"/>
<circle cx="26.0966" cy="25.0229" r="4.87087" stroke="#FFC71A" stroke-width="1.71913"/>
<circle cx="46.5351" cy="25.0229" r="4.87087" stroke="#FFC71A" stroke-width="1.71913"/>
<circle cx="66.5915" cy="25.0229" r="4.87087" stroke="#FFC71A" stroke-width="1.71913"/>
</svg>
